<svg xmlns="http://www.w3.org/2000/svg" width="327.48" height="35" viewBox="0 0 327.48 35"><rect class="svg__rect" x="0" y="0" width="108.83" height="35" fill="#4CAAEA"/><rect class="svg__rect" x="106.83" y="0" width="220.65000000000003" height="35" fill="#287AAC"/><path class="svg__text" d="M17.33 22L14.22 22L14.22 13.47L17.14 13.47Q18.59 13.47 19.34 14.05Q20.10 14.63 20.10 15.78L20.10 15.78Q20.10 16.36 19.78 16.83Q19.47 17.30 18.86 17.56L18.86 17.56Q19.55 17.75 19.93 18.26Q20.31 18.78 20.31 19.51L20.31 19.51Q20.31 20.71 19.53 21.36Q18.76 22 17.33 22L17.33 22ZM15.70 18.15L15.70 20.82L17.35 20.82Q18.04 20.82 18.44 20.47Q18.83 20.13 18.83 19.51L18.83 19.51Q18.83 18.18 17.47 18.15L17.47 18.15L15.70 18.15ZM15.70 14.66L15.70 17.06L17.15 17.06Q17.84 17.06 18.23 16.75Q18.62 16.43 18.62 15.86L18.62 15.86Q18.62 15.23 18.26 14.95Q17.90 14.66 17.14 14.66L17.14 14.66L15.70 14.66ZM25.56 22L24.01 22L27.24 13.47L28.57 13.47L31.80 22L30.25 22L29.55 20.01L26.25 20.01L25.56 22ZM27.90 15.28L26.66 18.82L29.14 18.82L27.90 15.28ZM35.48 18.19L35.48 18.19L35.48 17.39Q35.48 16.19 35.91 15.27Q36.34 14.35 37.14 13.85Q37.94 13.35 38.98 13.35L38.98 13.35Q40.40 13.35 41.26 14.12Q42.12 14.89 42.26 16.29L42.26 16.29L40.78 16.29Q40.68 15.37 40.25 14.96Q39.82 14.55 38.98 14.55L38.98 14.55Q38.02 14.55 37.50 15.26Q36.98 15.96 36.97 17.33L36.97 17.33L36.97 18.09Q36.97 19.47 37.46 20.20Q37.96 20.92 38.91 20.92L38.91 20.92Q39.79 20.92 40.23 20.53Q40.67 20.14 40.78 19.22L40.78 19.22L42.26 19.22Q42.13 20.59 41.25 21.35Q40.37 22.12 38.91 22.12L38.91 22.12Q37.89 22.12 37.12 21.63Q36.34 21.15 35.92 20.26Q35.50 19.37 35.48 18.19ZM48.06 22L46.57 22L46.57 13.47L48.06 13.47L48.06 17.02L51.87 17.02L51.87 13.47L53.35 13.47L53.35 22L51.87 22L51.87 18.21L48.06 18.21L48.06 22ZM63.66 22L58.09 22L58.09 13.47L63.62 13.47L63.62 14.66L59.57 14.66L59.57 17.02L63.07 17.02L63.07 18.19L59.57 18.19L59.57 20.82L63.66 20.82L63.66 22ZM73.22 22L67.86 22L67.86 13.47L69.34 13.47L69.34 20.82L73.22 20.82L73.22 22ZM77.07 18.00L77.07 18.00L77.07 17.52Q77.07 16.28 77.51 15.32Q77.96 14.37 78.76 13.86Q79.57 13.35 80.61 13.35Q81.65 13.35 82.46 13.85Q83.26 14.35 83.70 15.29Q84.14 16.23 84.15 17.48L84.15 17.48L84.15 17.96Q84.15 19.21 83.72 20.16Q83.28 21.10 82.48 21.61Q81.67 22.12 80.62 22.12L80.62 22.12Q79.58 22.12 78.77 21.61Q77.96 21.10 77.52 20.17Q77.08 19.23 77.07 18.00ZM78.55 17.46L78.55 17.96Q78.55 19.36 79.10 20.13Q79.65 20.90 80.62 20.90L80.62 20.90Q81.61 20.90 82.14 20.15Q82.67 19.40 82.67 17.96L82.67 17.96L82.67 17.51Q82.67 16.09 82.13 15.34Q81.59 14.58 80.61 14.58L80.61 14.58Q79.65 14.58 79.11 15.33Q78.56 16.09 78.55 17.46L78.55 17.46ZM90.10 22L88.61 22L88.61 13.47L91.61 13.47Q93.09 13.47 93.89 14.13Q94.70 14.79 94.70 16.05L94.70 16.05Q94.70 16.90 94.28 17.48Q93.87 18.06 93.13 18.37L93.13 18.37L95.05 21.92L95.05 22L93.46 22L91.75 18.71L90.10 18.71L90.10 22ZM90.10 14.66L90.10 17.52L91.62 17.52Q92.37 17.52 92.79 17.15Q93.21 16.77 93.21 16.11L93.21 16.11Q93.21 15.43 92.82 15.05Q92.43 14.68 91.66 14.66L91.66 14.66L90.10 14.66Z" fill="#FFFFFF"/><path class="svg__text" d="M123.40 22L121.02 22L121.02 13.60L123.40 13.60L123.40 22ZM130.90 22L128.57 22L128.57 13.60L130.53 13.60L134.24 18.07L134.24 13.60L136.56 13.60L136.56 22L134.61 22L130.90 17.52L130.90 22ZM143.52 15.48L140.93 15.48L140.93 13.60L148.46 13.60L148.46 15.48L145.89 15.48L145.89 22L143.52 22L143.52 15.48ZM159.57 22L152.83 22L152.83 13.60L159.42 13.60L159.42 15.44L155.18 15.44L155.18 16.85L158.92 16.85L158.92 18.63L155.18 18.63L155.18 20.17L159.57 20.17L159.57 22ZM166.76 22L164.38 22L164.38 13.60L168.22 13.60Q169.36 13.60 170.20 13.98Q171.04 14.35 171.50 15.06Q171.95 15.76 171.95 16.71L171.95 16.71Q171.95 17.62 171.53 18.30Q171.10 18.98 170.31 19.36L170.31 19.36L172.12 22L169.57 22L168.05 19.77L166.76 19.77L166.76 22ZM166.76 15.47L166.76 17.93L168.07 17.93Q168.81 17.93 169.18 17.61Q169.55 17.29 169.55 16.71L169.55 16.71Q169.55 16.12 169.18 15.79Q168.81 15.47 168.07 15.47L168.07 15.47L166.76 15.47ZM179.07 22L176.74 22L176.74 13.60L178.70 13.60L182.41 18.07L182.41 13.60L184.73 13.60L184.73 22L182.78 22L179.07 17.52L179.07 22ZM196.64 22L189.89 22L189.89 13.60L196.49 13.60L196.49 15.44L192.25 15.44L192.25 16.85L195.98 16.85L195.98 18.63L192.25 18.63L192.25 20.17L196.64 20.17L196.64 22ZM203.24 15.48L200.65 15.48L200.65 13.60L208.18 13.60L208.18 15.48L205.61 15.48L205.61 22L203.24 22L203.24 15.48ZM219.09 17.80L219.09 17.80Q219.09 16.55 219.70 15.55Q220.30 14.56 221.36 14.00Q222.43 13.43 223.76 13.43L223.76 13.43Q225.09 13.43 226.15 14.00Q227.21 14.56 227.82 15.55Q228.43 16.55 228.43 17.80L228.43 17.80Q228.43 19.05 227.82 20.04Q227.21 21.04 226.15 21.60Q225.09 22.17 223.76 22.17L223.76 22.17Q222.43 22.17 221.36 21.60Q220.30 21.04 219.70 20.04Q219.09 19.05 219.09 17.80ZM221.49 17.80L221.49 17.80Q221.49 18.51 221.79 19.05Q222.09 19.60 222.61 19.90Q223.12 20.20 223.76 20.20L223.76 20.20Q224.39 20.20 224.91 19.90Q225.43 19.60 225.72 19.05Q226.02 18.51 226.02 17.80L226.02 17.80Q226.02 17.09 225.72 16.54Q225.43 16 224.91 15.70Q224.39 15.40 223.76 15.40L223.76 15.40Q223.12 15.40 222.60 15.70Q222.09 16 221.79 16.54Q221.49 17.09 221.49 17.80ZM235.53 22L233.15 22L233.15 13.60L239.75 13.60L239.75 15.44L235.53 15.44L235.53 17.28L239.24 17.28L239.24 19.12L235.53 19.12L235.53 22ZM253.11 15.48L250.52 15.48L250.52 13.60L258.05 13.60L258.05 15.48L255.48 15.48L255.48 22L253.11 22L253.11 15.48ZM264.80 22L262.42 22L262.42 13.60L264.80 13.60L264.80 16.76L268.04 16.76L268.04 13.60L270.41 13.60L270.41 22L268.04 22L268.04 18.72L264.80 18.72L264.80 22ZM277.95 22L275.57 22L275.57 13.60L277.95 13.60L277.95 22ZM285.46 22L283.12 22L283.12 13.60L285.08 13.60L288.79 18.07L288.79 13.60L291.12 13.60L291.12 22L289.16 22L285.46 17.52L285.46 22ZM295.85 17.80L295.85 17.80Q295.85 16.54 296.45 15.54Q297.05 14.55 298.11 13.99Q299.18 13.43 300.53 13.43L300.53 13.43Q301.70 13.43 302.64 13.83Q303.58 14.22 304.20 14.97L304.20 14.97L302.69 16.33Q301.84 15.40 300.67 15.40L300.67 15.40Q300.65 15.40 300.65 15.40L300.65 15.40Q299.57 15.40 298.91 16.06Q298.25 16.71 298.25 17.80L298.25 17.80Q298.25 18.50 298.55 19.04Q298.85 19.59 299.39 19.89Q299.93 20.20 300.63 20.20L300.63 20.20Q301.31 20.20 301.91 19.93L301.91 19.93L301.91 17.62L304.01 17.62L304.01 21.10Q303.29 21.61 302.35 21.89Q301.42 22.17 300.48 22.17L300.48 22.17Q299.16 22.17 298.10 21.61Q297.05 21.05 296.45 20.05Q295.85 19.06 295.85 17.80ZM308.41 21.24L308.41 21.24L309.19 19.49Q309.75 19.86 310.50 20.09Q311.24 20.32 311.96 20.32L311.96 20.32Q313.33 20.32 313.33 19.64L313.33 19.64Q313.33 19.28 312.94 19.11Q312.56 18.93 311.69 18.74L311.69 18.74Q310.74 18.53 310.10 18.30Q309.47 18.06 309.01 17.55Q308.56 17.03 308.56 16.16L308.56 16.16Q308.56 15.39 308.98 14.77Q309.40 14.15 310.23 13.79Q311.07 13.43 312.27 13.43L312.27 13.43Q313.10 13.43 313.91 13.62Q314.71 13.80 315.33 14.17L315.33 14.17L314.59 15.93Q313.39 15.28 312.26 15.28L312.26 15.28Q311.55 15.28 311.23 15.49Q310.91 15.70 310.91 16.04L310.91 16.04Q310.91 16.37 311.29 16.54Q311.68 16.71 312.53 16.89L312.53 16.89Q313.49 17.10 314.12 17.33Q314.75 17.56 315.21 18.07Q315.67 18.58 315.67 19.46L315.67 19.46Q315.67 20.21 315.25 20.83Q314.83 21.44 313.99 21.80Q313.15 22.17 311.95 22.17L311.95 22.17Q310.93 22.17 309.97 21.92Q309.01 21.67 308.41 21.24Z" fill="#FFFFFF" x="119.83"/></svg>