<svg xmlns="http://www.w3.org/2000/svg" width="239.42000000000002" height="35" viewBox="0 0 239.42000000000002 35"><rect class="svg__rect" x="0" y="0" width="102.41" height="35" fill="#EA4C89"/><rect class="svg__rect" x="100.41" y="0" width="139.01000000000002" height="35" fill="#AC285B"/><path class="svg__text" d="M16.67 22L14.22 22L14.22 13.47L16.74 13.47Q17.87 13.47 18.74 13.97Q19.62 14.48 20.10 15.40Q20.58 16.33 20.58 17.52L20.58 17.52L20.58 17.95Q20.58 19.16 20.10 20.08Q19.61 21.00 18.72 21.50Q17.83 22 16.67 22L16.67 22ZM15.70 14.66L15.70 20.82L16.67 20.82Q17.83 20.82 18.46 20.09Q19.08 19.36 19.09 17.99L19.09 17.99L19.09 17.52Q19.09 16.13 18.49 15.40Q17.89 14.66 16.74 14.66L16.74 14.66L15.70 14.66ZM26.53 22L25.05 22L25.05 13.47L28.05 13.47Q29.52 13.47 30.32 14.13Q31.13 14.79 31.13 16.05L31.13 16.05Q31.13 16.90 30.71 17.48Q30.30 18.06 29.56 18.37L29.56 18.37L31.48 21.92L31.48 22L29.89 22L28.18 18.71L26.53 18.71L26.53 22ZM26.53 14.66L26.53 17.52L28.05 17.52Q28.80 17.52 29.22 17.15Q29.64 16.77 29.64 16.11L29.64 16.11Q29.64 15.43 29.26 15.05Q28.87 14.68 28.09 14.66L28.09 14.66L26.53 14.66ZM37.09 22L35.61 22L35.61 13.47L37.09 13.47L37.09 22ZM45.01 22L41.90 22L41.90 13.47L44.82 13.47Q46.27 13.47 47.02 14.05Q47.78 14.63 47.78 15.78L47.78 15.78Q47.78 16.36 47.46 16.83Q47.15 17.30 46.54 17.56L46.54 17.56Q47.23 17.75 47.61 18.26Q47.98 18.78 47.98 19.51L47.98 19.51Q47.98 20.71 47.21 21.36Q46.44 22 45.01 22L45.01 22ZM43.38 18.15L43.38 20.82L45.03 20.82Q45.72 20.82 46.12 20.47Q46.51 20.13 46.51 19.51L46.51 19.51Q46.51 18.18 45.15 18.15L45.15 18.15L43.38 18.15ZM43.38 14.66L43.38 17.06L44.83 17.06Q45.52 17.06 45.91 16.75Q46.30 16.43 46.30 15.86L46.30 15.86Q46.30 15.23 45.94 14.95Q45.58 14.66 44.82 14.66L44.82 14.66L43.38 14.66ZM55.57 22L52.46 22L52.46 13.47L55.38 13.47Q56.83 13.47 57.58 14.05Q58.34 14.63 58.34 15.78L58.34 15.78Q58.34 16.36 58.02 16.83Q57.71 17.30 57.10 17.56L57.10 17.56Q57.79 17.75 58.17 18.26Q58.54 18.78 58.54 19.51L58.54 19.51Q58.54 20.71 57.77 21.36Q57.00 22 55.57 22L55.57 22ZM53.94 18.15L53.94 20.82L55.58 20.82Q56.28 20.82 56.67 20.47Q57.07 20.13 57.07 19.51L57.07 19.51Q57.07 18.18 55.71 18.15L55.71 18.15L53.94 18.15ZM53.94 14.66L53.94 17.06L55.39 17.06Q56.08 17.06 56.47 16.75Q56.86 16.43 56.86 15.86L56.86 15.86Q56.86 15.23 56.50 14.95Q56.14 14.66 55.38 14.66L55.38 14.66L53.94 14.66ZM66.13 22L63.01 22L63.01 13.47L65.94 13.47Q67.39 13.47 68.14 14.05Q68.90 14.63 68.90 15.78L68.90 15.78Q68.90 16.36 68.58 16.83Q68.26 17.30 67.65 17.56L67.65 17.56Q68.35 17.75 68.72 18.26Q69.10 18.78 69.10 19.51L69.10 19.51Q69.10 20.71 68.33 21.36Q67.56 22 66.13 22L66.13 22ZM64.50 18.15L64.50 20.82L66.14 20.82Q66.84 20.82 67.23 20.47Q67.63 20.13 67.63 19.51L67.63 19.51Q67.63 18.18 66.27 18.15L66.27 18.15L64.50 18.15ZM64.50 14.66L64.50 17.06L65.95 17.06Q66.64 17.06 67.03 16.75Q67.42 16.43 67.42 15.86L67.42 15.86Q67.42 15.23 67.06 14.95Q66.70 14.66 65.94 14.66L65.94 14.66L64.50 14.66ZM78.93 22L73.57 22L73.57 13.47L75.06 13.47L75.06 20.82L78.93 20.82L78.93 22ZM88.63 22L83.05 22L83.05 13.47L88.59 13.47L88.59 14.66L84.54 14.66L84.54 17.02L88.04 17.02L88.04 18.19L84.54 18.19L84.54 20.82L88.63 20.82L88.63 22Z" fill="#FFFFFF"/><path class="svg__text" d="M119.14 22L114.60 22L114.60 13.60L118.90 13.60Q120.50 13.60 121.34 14.19Q122.19 14.79 122.19 15.79L122.19 15.79Q122.19 16.39 121.89 16.87Q121.59 17.34 121.05 17.62L121.05 17.62Q121.78 17.87 122.18 18.41Q122.59 18.94 122.59 19.70L122.59 19.70Q122.59 20.80 121.70 21.40Q120.81 22 119.14 22L119.14 22ZM116.95 18.58L116.95 20.28L118.95 20.28Q120.19 20.28 120.19 19.43L120.19 19.43Q120.19 18.58 118.95 18.58L118.95 18.58L116.95 18.58ZM116.95 15.31L116.95 16.94L118.58 16.94Q119.78 16.94 119.78 16.12L119.78 16.12Q119.78 15.31 118.58 15.31L118.58 15.31L116.95 15.31ZM134.05 22L127.31 22L127.31 13.60L133.90 13.60L133.90 15.44L129.66 15.44L129.66 16.85L133.39 16.85L133.39 18.63L129.66 18.63L129.66 20.17L134.05 20.17L134.05 22ZM140.27 22L137.85 22L141.56 13.60L143.90 13.60L147.62 22L145.15 22L144.49 20.37L140.94 20.37L140.27 22ZM142.71 15.93L141.63 18.61L143.79 18.61L142.71 15.93ZM153.97 22L151.77 22L151.77 13.60L153.73 13.60L156.68 18.45L159.56 13.60L161.51 13.60L161.54 22L159.36 22L159.33 17.55L157.17 21.17L156.12 21.17L153.97 17.67L153.97 22ZM175.87 22L173.67 22L173.67 13.60L175.63 13.60L178.58 18.45L181.47 13.60L183.42 13.60L183.44 22L181.26 22L181.24 17.55L179.07 21.17L178.02 21.17L175.87 17.67L175.87 22ZM195.35 22L188.60 22L188.60 13.60L195.19 13.60L195.19 15.44L190.96 15.44L190.96 16.85L194.69 16.85L194.69 18.63L190.96 18.63L190.96 20.17L195.35 20.17L195.35 22ZM207.05 18.26L207.05 18.26L207.05 13.60L209.43 13.60L209.43 18.19Q209.43 20.20 211.03 20.20L211.03 20.20Q212.61 20.20 212.61 18.19L212.61 18.19L212.61 13.60L214.95 13.60L214.95 18.26Q214.95 20.13 213.91 21.15Q212.87 22.17 211.00 22.17L211.00 22.17Q209.13 22.17 208.09 21.15Q207.05 20.13 207.05 18.26ZM222.42 22L220.04 22L220.04 13.60L223.88 13.60Q225.02 13.60 225.86 13.98Q226.70 14.35 227.16 15.06Q227.61 15.76 227.61 16.71L227.61 16.71Q227.61 17.66 227.16 18.35Q226.70 19.05 225.86 19.42Q225.02 19.80 223.88 19.80L223.88 19.80L222.42 19.80L222.42 22ZM222.42 15.47L222.42 17.93L223.73 17.93Q224.47 17.93 224.84 17.61Q225.21 17.29 225.21 16.71L225.21 16.71Q225.21 16.12 224.84 15.80Q224.47 15.47 223.73 15.47L223.73 15.47L222.42 15.47Z" fill="#FFFFFF" x="113.41"/></svg>