<svg xmlns="http://www.w3.org/2000/svg" width="231.23" height="35" viewBox="0 0 231.23 35"><rect class="svg__rect" x="0" y="0" width="94.22" height="35" fill="#000000"/><rect class="svg__rect" x="92.22" y="0" width="139.01" height="35" fill="#393939"/><path class="svg__text" d="M15.60 22L13.63 13.47L15.10 13.47L16.43 19.88L18.06 13.47L19.30 13.47L20.91 19.89L22.22 13.47L23.69 13.47L21.72 22L20.31 22L18.68 15.77L17.02 22L15.60 22ZM33.34 22L27.76 22L27.76 13.47L33.30 13.47L33.30 14.66L29.25 14.66L29.25 17.02L32.75 17.02L32.75 18.19L29.25 18.19L29.25 20.82L33.34 20.82L33.34 22ZM40.65 22L37.54 22L37.54 13.47L40.46 13.47Q41.91 13.47 42.66 14.05Q43.42 14.63 43.42 15.78L43.42 15.78Q43.42 16.36 43.10 16.83Q42.79 17.30 42.18 17.56L42.18 17.56Q42.87 17.75 43.25 18.26Q43.63 18.78 43.63 19.51L43.63 19.51Q43.63 20.71 42.85 21.36Q42.08 22 40.65 22L40.65 22ZM39.02 18.15L39.02 20.82L40.67 20.82Q41.36 20.82 41.76 20.47Q42.15 20.13 42.15 19.51L42.15 19.51Q42.15 18.18 40.79 18.15L40.79 18.15L39.02 18.15ZM39.02 14.66L39.02 17.06L40.47 17.06Q41.16 17.06 41.55 16.75Q41.94 16.43 41.94 15.86L41.94 15.86Q41.94 15.23 41.58 14.95Q41.22 14.66 40.46 14.66L40.46 14.66L39.02 14.66ZM47.66 19.42L47.66 19.42L49.14 19.42Q49.14 20.15 49.63 20.55Q50.11 20.95 51.00 20.95L51.00 20.95Q51.78 20.95 52.17 20.63Q52.56 20.32 52.56 19.80L52.56 19.80Q52.56 19.24 52.16 18.94Q51.76 18.63 50.73 18.32Q49.70 18.01 49.09 17.63L49.09 17.63Q47.93 16.90 47.93 15.72L47.93 15.72Q47.93 14.69 48.77 14.02Q49.61 13.35 50.95 13.35L50.95 13.35Q51.84 13.35 52.54 13.68Q53.23 14.01 53.63 14.61Q54.03 15.22 54.03 15.96L54.03 15.96L52.56 15.96Q52.56 15.29 52.14 14.91Q51.72 14.54 50.94 14.54L50.94 14.54Q50.21 14.54 49.81 14.85Q49.41 15.16 49.41 15.71L49.41 15.71Q49.41 16.18 49.84 16.50Q50.28 16.81 51.27 17.10Q52.27 17.40 52.87 17.78Q53.48 18.16 53.76 18.65Q54.04 19.13 54.04 19.79L54.04 19.79Q54.04 20.86 53.22 21.49Q52.40 22.12 51.00 22.12L51.00 22.12Q50.08 22.12 49.30 21.77Q48.52 21.43 48.09 20.83Q47.66 20.22 47.66 19.42ZM59.89 22L58.41 22L58.41 13.47L59.89 13.47L59.89 22ZM66.38 14.66L63.75 14.66L63.75 13.47L70.51 13.47L70.51 14.66L67.85 14.66L67.85 22L66.38 22L66.38 14.66ZM79.85 22L74.27 22L74.27 13.47L79.81 13.47L79.81 14.66L75.75 14.66L75.75 17.02L79.26 17.02L79.26 18.19L75.75 18.19L75.75 20.82L79.85 20.82L79.85 22Z" fill="#FFFFFF"/><path class="svg__text" d="M110.95 22L106.41 22L106.41 13.60L110.71 13.60Q112.31 13.60 113.15 14.19Q114.00 14.79 114.00 15.79L114.00 15.79Q114.00 16.39 113.70 16.87Q113.40 17.34 112.86 17.62L112.86 17.62Q113.59 17.87 113.99 18.41Q114.40 18.94 114.40 19.70L114.40 19.70Q114.40 20.80 113.51 21.40Q112.62 22 110.95 22L110.95 22ZM108.76 18.58L108.76 20.28L110.76 20.28Q112.00 20.28 112.00 19.43L112.00 19.43Q112.00 18.58 110.76 18.58L110.76 18.58L108.76 18.58ZM108.76 15.31L108.76 16.94L110.39 16.94Q111.59 16.94 111.59 16.12L111.59 16.12Q111.59 15.31 110.39 15.31L110.39 15.31L108.76 15.31ZM125.86 22L119.12 22L119.12 13.60L125.71 13.60L125.71 15.44L121.47 15.44L121.47 16.85L125.20 16.85L125.20 18.63L121.47 18.63L121.47 20.17L125.86 20.17L125.86 22ZM132.08 22L129.66 22L133.37 13.60L135.71 13.60L139.43 22L136.96 22L136.30 20.37L132.75 20.37L132.08 22ZM134.52 15.93L133.44 18.61L135.60 18.61L134.52 15.93ZM145.78 22L143.58 22L143.58 13.60L145.54 13.60L148.49 18.45L151.37 13.60L153.32 13.60L153.35 22L151.17 22L151.14 17.55L148.98 21.17L147.93 21.17L145.78 17.67L145.78 22ZM167.68 22L165.48 22L165.48 13.60L167.44 13.60L170.39 18.45L173.28 13.60L175.23 13.60L175.25 22L173.07 22L173.05 17.55L170.88 21.17L169.83 21.17L167.68 17.67L167.68 22ZM187.16 22L180.41 22L180.41 13.60L187.00 13.60L187.00 15.44L182.77 15.44L182.77 16.85L186.50 16.85L186.50 18.63L182.77 18.63L182.77 20.17L187.16 20.17L187.16 22ZM198.86 18.26L198.86 18.26L198.86 13.60L201.24 13.60L201.24 18.19Q201.24 20.20 202.84 20.20L202.84 20.20Q204.42 20.20 204.42 18.19L204.42 18.19L204.42 13.60L206.76 13.60L206.76 18.26Q206.76 20.13 205.72 21.15Q204.68 22.17 202.81 22.17L202.81 22.17Q200.94 22.17 199.90 21.15Q198.86 20.13 198.86 18.26ZM214.23 22L211.85 22L211.85 13.60L215.69 13.60Q216.83 13.60 217.67 13.98Q218.51 14.35 218.97 15.06Q219.42 15.76 219.42 16.71L219.42 16.71Q219.42 17.66 218.97 18.35Q218.51 19.05 217.67 19.42Q216.83 19.80 215.69 19.80L215.69 19.80L214.23 19.80L214.23 22ZM214.23 15.47L214.23 17.93L215.54 17.93Q216.28 17.93 216.65 17.61Q217.02 17.29 217.02 16.71L217.02 16.71Q217.02 16.12 216.65 15.80Q216.28 15.47 215.54 15.47L215.54 15.47L214.23 15.47Z" fill="#FFFFFF" x="105.22"/></svg>